Coordinates
version=1
nRows=10
nColumns=34
inDegrees=yes

Units are S.I. units (second, meters, Newtons, ...)
If the header above contains a line with 'inDegrees', this indicates whether rotational values are in degrees (yes) or radians (no).

endheader
time	pelvis_tilt	pelvis_list	pelvis_rotation	pelvis_tx	pelvis_ty	pelvis_tz	hip_flexion_r	hip_adduction_r	hip_rotation_r	knee_angle_r	ankle_angle_r	subtalar_angle_r	mtp_angle_r	hip_flexion_l	hip_adduction_l	hip_rotation_l	knee_angle_l	ankle_angle_l	subtalar_angle_l	mtp_angle_l	lumbar_extension	lumbar_bending	lumbar_rotation	arm_flex_r	arm_add_r	arm_rot_r	elbow_flex_r	pro_sup_r	arm_flex_l	arm_add_l	arm_rot_l	elbow_flex_l	pro_sup_l
      0.00000000	     -3.41979277	    -22.88894125	    -19.62898580	      4.38510368	      0.82367140	      2.91073069	     47.10248542	      5.58775760	    -18.69258708	     32.09354159	    -14.97886885	      8.30421855	      0.00000000	     23.05555241	     17.76521464	     11.69001214	      9.10812144	    -19.47672210	    -19.26462694	      0.00000000	    -26.16317647	      7.34686798	     53.92622499	     36.23087828	      9.75013303	     17.08790114	     30.59627583	    101.72030754	      4.56659585	     12.42506972	     42.75236383	     31.75336575	     93.23818320
      0.01666670	     -3.15343958	    -22.35296027	    -19.67022705	      4.38596734	      0.82322731	      2.90895585	     47.31630778	      5.16518124	    -17.66941835	     32.58358621	    -14.85155360	      7.87685755	      0.00000000	     23.16285819	     18.31987196	     11.20796789	      9.17206514	    -19.61110534	    -18.33034445	      0.00000000	    -26.23104833	      7.09328261	     53.78024562	     35.57155448	      9.49965768	     17.19309929	     31.51744433	    101.98670317	      4.52948054	     12.68386729	     42.72390933	     31.15604701	     93.10729726
      0.03333330	     -3.20814185	    -23.06139627	    -20.42772395	      4.38739517	      0.82431858	      2.90908183	     46.63578047	      6.16573097	    -17.71625388	     31.86157625	    -15.12544436	      9.06249672	      0.00000000	     23.14485449	     17.46777148	     11.76003305	      9.78053472	    -18.40193537	    -18.06835406	      0.00000000	    -26.01179039	      7.54750955	     53.81721832	     35.38400420	      9.85082012	     16.91230363	     31.35132744	    102.19863875	      3.85924297	     12.18199902	     42.91600927	     31.82132758	     93.14242038
      0.05000000	     -3.14601588	    -23.67184804	    -20.32764142	      4.38997273	      0.82428876	      2.90788086	     46.27502534	      6.38611727	    -18.23190566	     31.96029628	    -15.25021814	      9.26288196	      0.00000000	     22.64359785	     17.00026424	     13.01041585	     10.01283002	    -17.37253301	    -16.92903316	      0.00000000	    -26.01528897	      8.54278486	     53.24366498	     34.61105425	      9.84963139	     16.50324603	     31.84167681	    102.74225715	      3.26113639	     12.06466331	     42.37126730	     31.68206340	     93.06936977
      0.06666670	     -3.52207323	    -23.60000382	    -20.91384409	      4.39183697	      0.82445922	      2.90736843	     46.32304223	      6.66351718	    -17.88462866	     31.64515304	    -14.89472448	     10.02696696	      0.00000000	     22.19558378	     16.76778414	     13.76957047	      8.76986819	    -16.40005132	    -17.48687343	      0.00000000	    -25.46127673	      8.66040254	     53.09702673	     33.89826458	      9.77537489	     16.37932352	     31.88368781	    102.90979092	      2.76108099	     11.69766336	     42.23846472	     32.05332275	     93.10529621
      0.08333330	     -3.68288423	    -23.70567909	    -21.01161944	      4.39294513	      0.82501594	      2.90686157	     46.21924394	      6.84770671	    -17.76799429	     31.41407866	    -14.79998079	     10.16040007	      0.00000000	     22.07028471	     16.43184077	     13.67988350	      8.36145337	    -16.72608142	    -16.88633139	      0.00000000	    -25.38095073	      9.03775889	     52.77920992	     33.21891474	      9.67132240	     16.49369596	     32.18457610	    103.11287837	      2.68013798	     11.38592925	     42.05813009	     31.90070782	     93.15255420
      0.10000000	     -2.97795443	    -23.95774395	    -20.84762521	      4.39369662	      0.82750658	      2.90680424	     45.24722862	      7.23401490	    -17.13348137	     31.10573121	    -14.83571362	      9.34948726	      0.00000000	     22.16062675	     16.29623723	     12.40105007	     10.04989749	    -14.92023051	    -14.42443709	      0.00000000	    -25.93307013	      9.03922731	     52.64648368	     32.85494652	      9.72618897	     16.09660887	     32.38059957	    105.42038946	      2.71755456	     11.11069927	     41.18805265	     32.05674341	     94.18752200
      0.11666670	     -2.03204148	    -23.88609456	    -20.38004940	      4.39285104	      0.83021290	      2.90769127	     44.29384190	      7.11696955	    -16.90903522	     30.95225919	    -14.77348085	      8.79896217	      0.00000000	     22.27197198	     16.40365819	     10.36840539	     11.64571454	    -13.57017975	    -11.07732603	      0.00000000	    -26.70798417	      8.22796486	     52.12774140	     33.00294277	     10.00606877	     15.08798199	     32.77683049	    107.11162785	      3.29406334	     10.65986275	     41.17969613	     32.44512095	     95.28757197
      0.13333330	     -1.31486681	    -24.29703151	    -18.96755616	      4.39366834	      0.83115631	      2.90595689	     43.58287728	      6.33704429	    -18.12540485	     31.38501515	    -14.18385255	      9.07253635	      0.00000000	     22.22025596	     16.27620179	      8.11366515	     13.32868603	    -12.68179509	     -6.83222410	      0.00000000	    -27.27294905	      8.79174938	     50.97976590	     33.09238009	     10.21083755	     14.13033827	     32.67596407	    108.03431874	      3.51257193	     10.08303912	     42.34236219	     33.03989059	     96.16467913
      0.15000000	     -0.78511111	    -24.47538971	    -18.75057928	      4.39491135	      0.83087176	      2.90438015	     43.25203285	      5.94210196	    -18.66646586	     32.09234861	    -13.68226723	      9.73362143	      0.00000000	     22.12844461	     16.21746514	      7.92052554	     14.13812866	    -12.29354802	     -3.74153105	      0.00000000	    -27.55574998	      9.19331560	     51.01921158	     32.90768943	      9.95880837	     14.10041471	     33.05076750	    109.02176208	      3.20332165	      9.81053267	     43.36069458	     33.63982144	     96.99071747
